# xmcd
# 
# Track frame offsets:
#     150
#     68002
#     105847
# 
# Disc length: 2616
# 
# Revision: 1
# Processed by: cddbd v1.5.2PL0 Copyright (c) Steve Scherf et al.
# Submitted via: BonkEnc v1.0.8
# 
DISCID=180a3603
DTITLE=Pharoah Sanders - Jewels Of Thought
DYEAR=1969
DGENRE=Jazz
TTITLE0=Hum-Auah-Hum-Auah-Hum-Auah
TTITLE1=Sun In Aquarius: Part1
TTITLE2=Sun In Aquarius: Part2
EXTD=
EXTT0=
EXTT1=
EXTT2=
PLAYORDER=
